<svg width="324" height="44" viewBox="0 0 324 44" fill="none" xmlns="http://www.w3.org/2000/svg">
<rect width="324" height="44" rx="4" fill="#9F9F9F"/>
<g clip-path="url(#clip0_27_1123)">
<path d="M125.391 24.125C125.391 23.8594 125.349 23.625 125.266 23.4219C125.188 23.2135 125.047 23.026 124.844 22.8594C124.646 22.6927 124.37 22.5339 124.016 22.3828C123.667 22.2318 123.224 22.0781 122.688 21.9219C122.125 21.7552 121.617 21.5703 121.164 21.3672C120.711 21.1589 120.323 20.9219 120 20.6562C119.677 20.3906 119.43 20.0859 119.258 19.7422C119.086 19.3984 119 19.0052 119 18.5625C119 18.1198 119.091 17.7109 119.273 17.3359C119.456 16.9609 119.716 16.6354 120.055 16.3594C120.398 16.0781 120.807 15.8594 121.281 15.7031C121.755 15.5469 122.284 15.4688 122.867 15.4688C123.721 15.4688 124.445 15.6328 125.039 15.9609C125.638 16.2839 126.094 16.7083 126.406 17.2344C126.719 17.7552 126.875 18.3125 126.875 18.9062H125.375C125.375 18.4792 125.284 18.1016 125.102 17.7734C124.919 17.4401 124.643 17.1797 124.273 16.9922C123.904 16.7995 123.435 16.7031 122.867 16.7031C122.331 16.7031 121.888 16.7839 121.539 16.9453C121.19 17.1068 120.93 17.3255 120.758 17.6016C120.591 17.8776 120.508 18.1927 120.508 18.5469C120.508 18.7865 120.557 19.0052 120.656 19.2031C120.76 19.3958 120.919 19.5755 121.133 19.7422C121.352 19.9089 121.628 20.0625 121.961 20.2031C122.299 20.3438 122.703 20.4792 123.172 20.6094C123.818 20.7917 124.375 20.9948 124.844 21.2188C125.312 21.4427 125.698 21.6953 126 21.9766C126.307 22.2526 126.534 22.5677 126.68 22.9219C126.831 23.2708 126.906 23.6667 126.906 24.1094C126.906 24.5729 126.812 24.9922 126.625 25.3672C126.438 25.7422 126.169 26.0625 125.82 26.3281C125.471 26.5938 125.052 26.7995 124.562 26.9453C124.078 27.0859 123.536 27.1562 122.938 27.1562C122.411 27.1562 121.893 27.0833 121.383 26.9375C120.878 26.7917 120.417 26.5729 120 26.2812C119.589 25.9896 119.258 25.6302 119.008 25.2031C118.763 24.7708 118.641 24.2708 118.641 23.7031H120.141C120.141 24.0938 120.216 24.4297 120.367 24.7109C120.518 24.987 120.724 25.2161 120.984 25.3984C121.25 25.5807 121.549 25.7161 121.883 25.8047C122.221 25.888 122.573 25.9297 122.938 25.9297C123.464 25.9297 123.909 25.8568 124.273 25.7109C124.638 25.5651 124.914 25.3568 125.102 25.0859C125.294 24.8151 125.391 24.4948 125.391 24.125ZM133.594 25.5547V21.2031C133.594 20.8698 133.526 20.5807 133.391 20.3359C133.26 20.0859 133.062 19.8932 132.797 19.7578C132.531 19.6224 132.203 19.5547 131.812 19.5547C131.448 19.5547 131.128 19.6172 130.852 19.7422C130.581 19.8672 130.367 20.0312 130.211 20.2344C130.06 20.4375 129.984 20.6562 129.984 20.8906H128.539C128.539 20.5885 128.617 20.2891 128.773 19.9922C128.93 19.6953 129.154 19.4271 129.445 19.1875C129.742 18.9427 130.096 18.75 130.508 18.6094C130.924 18.4635 131.388 18.3906 131.898 18.3906C132.513 18.3906 133.055 18.4948 133.523 18.7031C133.997 18.9115 134.367 19.2266 134.633 19.6484C134.904 20.0651 135.039 20.5885 135.039 21.2188V25.1562C135.039 25.4375 135.062 25.737 135.109 26.0547C135.161 26.3724 135.237 26.6458 135.336 26.875V27H133.828C133.755 26.8333 133.698 26.612 133.656 26.3359C133.615 26.0547 133.594 25.7943 133.594 25.5547ZM133.844 21.875L133.859 22.8906H132.398C131.987 22.8906 131.62 22.9245 131.297 22.9922C130.974 23.0547 130.703 23.151 130.484 23.2812C130.266 23.4115 130.099 23.5755 129.984 23.7734C129.87 23.9661 129.812 24.1927 129.812 24.4531C129.812 24.7188 129.872 24.9609 129.992 25.1797C130.112 25.3984 130.292 25.5729 130.531 25.7031C130.776 25.8281 131.076 25.8906 131.43 25.8906C131.872 25.8906 132.263 25.7969 132.602 25.6094C132.94 25.4219 133.208 25.1927 133.406 24.9219C133.609 24.651 133.719 24.388 133.734 24.1328L134.352 24.8281C134.315 25.0469 134.216 25.2891 134.055 25.5547C133.893 25.8203 133.677 26.0755 133.406 26.3203C133.141 26.5599 132.823 26.7604 132.453 26.9219C132.089 27.0781 131.677 27.1562 131.219 27.1562C130.646 27.1562 130.143 27.0443 129.711 26.8203C129.284 26.5964 128.951 26.2969 128.711 25.9219C128.477 25.5417 128.359 25.1172 128.359 24.6484C128.359 24.1953 128.448 23.7969 128.625 23.4531C128.802 23.1042 129.057 22.8151 129.391 22.5859C129.724 22.3516 130.125 22.1745 130.594 22.0547C131.062 21.9349 131.586 21.875 132.164 21.875H133.844ZM138.883 15V27H137.43V15H138.883ZM143.773 25.6953L146.086 18.5469H147.562L144.523 27H143.555L143.773 25.6953ZM141.844 18.5469L144.227 25.7344L144.391 27H143.422L140.359 18.5469H141.844ZM153.812 25.5547V21.2031C153.812 20.8698 153.745 20.5807 153.609 20.3359C153.479 20.0859 153.281 19.8932 153.016 19.7578C152.75 19.6224 152.422 19.5547 152.031 19.5547C151.667 19.5547 151.346 19.6172 151.07 19.7422C150.799 19.8672 150.586 20.0312 150.43 20.2344C150.279 20.4375 150.203 20.6562 150.203 20.8906H148.758C148.758 20.5885 148.836 20.2891 148.992 19.9922C149.148 19.6953 149.372 19.4271 149.664 19.1875C149.961 18.9427 150.315 18.75 150.727 18.6094C151.143 18.4635 151.607 18.3906 152.117 18.3906C152.732 18.3906 153.273 18.4948 153.742 18.7031C154.216 18.9115 154.586 19.2266 154.852 19.6484C155.122 20.0651 155.258 20.5885 155.258 21.2188V25.1562C155.258 25.4375 155.281 25.737 155.328 26.0547C155.38 26.3724 155.456 26.6458 155.555 26.875V27H154.047C153.974 26.8333 153.917 26.612 153.875 26.3359C153.833 26.0547 153.812 25.7943 153.812 25.5547ZM154.062 21.875L154.078 22.8906H152.617C152.206 22.8906 151.839 22.9245 151.516 22.9922C151.193 23.0547 150.922 23.151 150.703 23.2812C150.484 23.4115 150.318 23.5755 150.203 23.7734C150.089 23.9661 150.031 24.1927 150.031 24.4531C150.031 24.7188 150.091 24.9609 150.211 25.1797C150.331 25.3984 150.51 25.5729 150.75 25.7031C150.995 25.8281 151.294 25.8906 151.648 25.8906C152.091 25.8906 152.482 25.7969 152.82 25.6094C153.159 25.4219 153.427 25.1927 153.625 24.9219C153.828 24.651 153.938 24.388 153.953 24.1328L154.57 24.8281C154.534 25.0469 154.435 25.2891 154.273 25.5547C154.112 25.8203 153.896 26.0755 153.625 26.3203C153.359 26.5599 153.042 26.7604 152.672 26.9219C152.307 27.0781 151.896 27.1562 151.438 27.1562C150.865 27.1562 150.362 27.0443 149.93 26.8203C149.503 26.5964 149.169 26.2969 148.93 25.9219C148.695 25.5417 148.578 25.1172 148.578 24.6484C148.578 24.1953 148.667 23.7969 148.844 23.4531C149.021 23.1042 149.276 22.8151 149.609 22.5859C149.943 22.3516 150.344 22.1745 150.812 22.0547C151.281 21.9349 151.805 21.875 152.383 21.875H154.062ZM158.977 19.875V27H157.531V18.5469H158.938L158.977 19.875ZM161.617 18.5L161.609 19.8438C161.49 19.8177 161.375 19.8021 161.266 19.7969C161.161 19.7865 161.042 19.7812 160.906 19.7812C160.573 19.7812 160.279 19.8333 160.023 19.9375C159.768 20.0417 159.552 20.1875 159.375 20.375C159.198 20.5625 159.057 20.7865 158.953 21.0469C158.854 21.3021 158.789 21.5833 158.758 21.8906L158.352 22.125C158.352 21.6146 158.401 21.1354 158.5 20.6875C158.604 20.2396 158.763 19.8438 158.977 19.5C159.19 19.151 159.461 18.8802 159.789 18.6875C160.122 18.4896 160.518 18.3906 160.977 18.3906C161.081 18.3906 161.201 18.4036 161.336 18.4297C161.471 18.4505 161.565 18.474 161.617 18.5ZM168.367 20.3516V27H166.922V18.5469H168.289L168.367 20.3516ZM168.023 22.4531L167.422 22.4297C167.427 21.8516 167.513 21.3177 167.68 20.8281C167.846 20.3333 168.081 19.9036 168.383 19.5391C168.685 19.1745 169.044 18.8932 169.461 18.6953C169.883 18.4922 170.349 18.3906 170.859 18.3906C171.276 18.3906 171.651 18.4479 171.984 18.5625C172.318 18.6719 172.602 18.849 172.836 19.0938C173.076 19.3385 173.258 19.6562 173.383 20.0469C173.508 20.4323 173.57 20.9036 173.57 21.4609V27H172.117V21.4453C172.117 21.0026 172.052 20.6484 171.922 20.3828C171.792 20.112 171.602 19.9167 171.352 19.7969C171.102 19.6719 170.794 19.6094 170.43 19.6094C170.07 19.6094 169.742 19.6849 169.445 19.8359C169.154 19.987 168.901 20.1953 168.688 20.4609C168.479 20.7266 168.315 21.0312 168.195 21.375C168.081 21.7135 168.023 22.0729 168.023 22.4531ZM175.383 22.8672V22.6875C175.383 22.0781 175.471 21.513 175.648 20.9922C175.826 20.4661 176.081 20.0104 176.414 19.625C176.747 19.2344 177.151 18.9323 177.625 18.7188C178.099 18.5 178.63 18.3906 179.219 18.3906C179.812 18.3906 180.346 18.5 180.82 18.7188C181.299 18.9323 181.706 19.2344 182.039 19.625C182.378 20.0104 182.635 20.4661 182.812 20.9922C182.99 21.513 183.078 22.0781 183.078 22.6875V22.8672C183.078 23.4766 182.99 24.0417 182.812 24.5625C182.635 25.0833 182.378 25.5391 182.039 25.9297C181.706 26.3151 181.302 26.6172 180.828 26.8359C180.359 27.0495 179.828 27.1562 179.234 27.1562C178.641 27.1562 178.107 27.0495 177.633 26.8359C177.159 26.6172 176.753 26.3151 176.414 25.9297C176.081 25.5391 175.826 25.0833 175.648 24.5625C175.471 24.0417 175.383 23.4766 175.383 22.8672ZM176.828 22.6875V22.8672C176.828 23.2891 176.878 23.6875 176.977 24.0625C177.076 24.4323 177.224 24.7604 177.422 25.0469C177.625 25.3333 177.878 25.5599 178.18 25.7266C178.482 25.888 178.833 25.9688 179.234 25.9688C179.63 25.9688 179.977 25.888 180.273 25.7266C180.576 25.5599 180.826 25.3333 181.023 25.0469C181.221 24.7604 181.37 24.4323 181.469 24.0625C181.573 23.6875 181.625 23.2891 181.625 22.8672V22.6875C181.625 22.2708 181.573 21.8776 181.469 21.5078C181.37 21.1328 181.219 20.8021 181.016 20.5156C180.818 20.224 180.568 19.9948 180.266 19.8281C179.969 19.6615 179.62 19.5781 179.219 19.5781C178.823 19.5781 178.474 19.6615 178.172 19.8281C177.875 19.9948 177.625 20.224 177.422 20.5156C177.224 20.8021 177.076 21.1328 176.977 21.5078C176.878 21.8776 176.828 22.2708 176.828 22.6875ZM188.43 18.5469V19.6562H183.859V18.5469H188.43ZM185.406 16.4922H186.852V24.9062C186.852 25.1927 186.896 25.4089 186.984 25.5547C187.073 25.7005 187.188 25.7969 187.328 25.8438C187.469 25.8906 187.62 25.9141 187.781 25.9141C187.901 25.9141 188.026 25.9036 188.156 25.8828C188.292 25.8568 188.393 25.8359 188.461 25.8203L188.469 27C188.354 27.0365 188.203 27.0703 188.016 27.1016C187.833 27.138 187.612 27.1562 187.352 27.1562C186.997 27.1562 186.672 27.0859 186.375 26.9453C186.078 26.8047 185.841 26.5703 185.664 26.2422C185.492 25.9089 185.406 25.4609 185.406 24.8984V16.4922ZM195.109 25.5547V21.2031C195.109 20.8698 195.042 20.5807 194.906 20.3359C194.776 20.0859 194.578 19.8932 194.312 19.7578C194.047 19.6224 193.719 19.5547 193.328 19.5547C192.964 19.5547 192.643 19.6172 192.367 19.7422C192.096 19.8672 191.883 20.0312 191.727 20.2344C191.576 20.4375 191.5 20.6562 191.5 20.8906H190.055C190.055 20.5885 190.133 20.2891 190.289 19.9922C190.445 19.6953 190.669 19.4271 190.961 19.1875C191.258 18.9427 191.612 18.75 192.023 18.6094C192.44 18.4635 192.904 18.3906 193.414 18.3906C194.029 18.3906 194.57 18.4948 195.039 18.7031C195.513 18.9115 195.883 19.2266 196.148 19.6484C196.419 20.0651 196.555 20.5885 196.555 21.2188V25.1562C196.555 25.4375 196.578 25.737 196.625 26.0547C196.677 26.3724 196.753 26.6458 196.852 26.875V27H195.344C195.271 26.8333 195.214 26.612 195.172 26.3359C195.13 26.0547 195.109 25.7943 195.109 25.5547ZM195.359 21.875L195.375 22.8906H193.914C193.503 22.8906 193.135 22.9245 192.812 22.9922C192.49 23.0547 192.219 23.151 192 23.2812C191.781 23.4115 191.615 23.5755 191.5 23.7734C191.385 23.9661 191.328 24.1927 191.328 24.4531C191.328 24.7188 191.388 24.9609 191.508 25.1797C191.628 25.3984 191.807 25.5729 192.047 25.7031C192.292 25.8281 192.591 25.8906 192.945 25.8906C193.388 25.8906 193.779 25.7969 194.117 25.6094C194.456 25.4219 194.724 25.1927 194.922 24.9219C195.125 24.651 195.234 24.388 195.25 24.1328L195.867 24.8281C195.831 25.0469 195.732 25.2891 195.57 25.5547C195.409 25.8203 195.193 26.0755 194.922 26.3203C194.656 26.5599 194.339 26.7604 193.969 26.9219C193.604 27.0781 193.193 27.1562 192.734 27.1562C192.161 27.1562 191.659 27.0443 191.227 26.8203C190.799 26.5964 190.466 26.2969 190.227 25.9219C189.992 25.5417 189.875 25.1172 189.875 24.6484C189.875 24.1953 189.964 23.7969 190.141 23.4531C190.318 23.1042 190.573 22.8151 190.906 22.5859C191.24 22.3516 191.641 22.1745 192.109 22.0547C192.578 21.9349 193.102 21.875 193.68 21.875H195.359ZM203.75 24.7578C203.75 24.5495 203.703 24.3568 203.609 24.1797C203.521 23.9974 203.336 23.8333 203.055 23.6875C202.779 23.5365 202.362 23.4062 201.805 23.2969C201.336 23.1979 200.911 23.0807 200.531 22.9453C200.156 22.8099 199.836 22.6458 199.57 22.4531C199.31 22.2604 199.109 22.0339 198.969 21.7734C198.828 21.513 198.758 21.2083 198.758 20.8594C198.758 20.526 198.831 20.2109 198.977 19.9141C199.128 19.6172 199.339 19.3542 199.609 19.125C199.885 18.8958 200.216 18.7161 200.602 18.5859C200.987 18.4557 201.417 18.3906 201.891 18.3906C202.568 18.3906 203.146 18.5104 203.625 18.75C204.104 18.9896 204.471 19.3099 204.727 19.7109C204.982 20.1068 205.109 20.5469 205.109 21.0312H203.664C203.664 20.7969 203.594 20.5703 203.453 20.3516C203.318 20.1276 203.117 19.9427 202.852 19.7969C202.591 19.651 202.271 19.5781 201.891 19.5781C201.49 19.5781 201.164 19.6406 200.914 19.7656C200.669 19.8854 200.49 20.0391 200.375 20.2266C200.266 20.4141 200.211 20.612 200.211 20.8203C200.211 20.9766 200.237 21.1172 200.289 21.2422C200.346 21.362 200.445 21.474 200.586 21.5781C200.727 21.6771 200.924 21.7708 201.18 21.8594C201.435 21.9479 201.76 22.0365 202.156 22.125C202.849 22.2812 203.419 22.4688 203.867 22.6875C204.315 22.9062 204.648 23.1745 204.867 23.4922C205.086 23.8099 205.195 24.1953 205.195 24.6484C205.195 25.0182 205.117 25.3568 204.961 25.6641C204.81 25.9714 204.589 26.237 204.297 26.4609C204.01 26.6797 203.667 26.8516 203.266 26.9766C202.87 27.0964 202.424 27.1562 201.93 27.1562C201.185 27.1562 200.555 27.0234 200.039 26.7578C199.523 26.4922 199.133 26.1484 198.867 25.7266C198.602 25.3047 198.469 24.8594 198.469 24.3906H199.922C199.943 24.7865 200.057 25.1016 200.266 25.3359C200.474 25.5651 200.729 25.7292 201.031 25.8281C201.333 25.9219 201.633 25.9688 201.93 25.9688C202.326 25.9688 202.656 25.9167 202.922 25.8125C203.193 25.7083 203.398 25.5651 203.539 25.3828C203.68 25.2005 203.75 24.9922 203.75 24.7578Z" fill="white"/>
</g>
<defs>
<clipPath id="clip0_27_1123">
<rect x="118" y="10" width="88" height="24" rx="4" fill="white"/>
</clipPath>
</defs>
</svg>
