<svg width="324" height="44" viewBox="0 0 324 44" fill="none" xmlns="http://www.w3.org/2000/svg">
<g clip-path="url(#clip0_27_1124)">
<path d="M106.117 15.625V27H104.609V15.625H106.117ZM110.078 20.2266V27H108.625V18.5469H110L110.078 20.2266ZM109.781 22.4531L109.109 22.4297C109.115 21.8516 109.19 21.3177 109.336 20.8281C109.482 20.3333 109.698 19.9036 109.984 19.5391C110.271 19.1745 110.628 18.8932 111.055 18.6953C111.482 18.4922 111.977 18.3906 112.539 18.3906C112.935 18.3906 113.299 18.4479 113.633 18.5625C113.966 18.6719 114.255 18.8464 114.5 19.0859C114.745 19.3255 114.935 19.6328 115.07 20.0078C115.206 20.3828 115.273 20.8359 115.273 21.3672V27H113.828V21.4375C113.828 20.9948 113.753 20.6406 113.602 20.375C113.456 20.1094 113.247 19.9167 112.977 19.7969C112.706 19.6719 112.388 19.6094 112.023 19.6094C111.596 19.6094 111.24 19.6849 110.953 19.8359C110.667 19.987 110.438 20.1953 110.266 20.4609C110.094 20.7266 109.969 21.0312 109.891 21.375C109.818 21.7135 109.781 22.0729 109.781 22.4531ZM115.258 21.6562L114.289 21.9531C114.294 21.4896 114.37 21.0443 114.516 20.6172C114.667 20.1901 114.883 19.8099 115.164 19.4766C115.451 19.1432 115.802 18.8802 116.219 18.6875C116.635 18.4896 117.112 18.3906 117.648 18.3906C118.102 18.3906 118.503 18.4505 118.852 18.5703C119.206 18.6901 119.503 18.875 119.742 19.125C119.987 19.3698 120.172 19.6849 120.297 20.0703C120.422 20.4557 120.484 20.9141 120.484 21.4453V27H119.031V21.4297C119.031 20.9557 118.956 20.5885 118.805 20.3281C118.659 20.0625 118.451 19.8776 118.18 19.7734C117.914 19.6641 117.596 19.6094 117.227 19.6094C116.909 19.6094 116.628 19.6641 116.383 19.7734C116.138 19.8828 115.932 20.0339 115.766 20.2266C115.599 20.4141 115.471 20.6302 115.383 20.875C115.299 21.1198 115.258 21.3802 115.258 21.6562ZM124.117 20.1719V30.25H122.664V18.5469H123.992L124.117 20.1719ZM129.812 22.7031V22.8672C129.812 23.4818 129.74 24.0521 129.594 24.5781C129.448 25.099 129.234 25.5521 128.953 25.9375C128.677 26.3229 128.336 26.6224 127.93 26.8359C127.523 27.0495 127.057 27.1562 126.531 27.1562C125.995 27.1562 125.521 27.0677 125.109 26.8906C124.698 26.7135 124.349 26.4557 124.062 26.1172C123.776 25.7786 123.547 25.3724 123.375 24.8984C123.208 24.4245 123.094 23.8906 123.031 23.2969V22.4219C123.094 21.7969 123.211 21.237 123.383 20.7422C123.555 20.2474 123.781 19.8255 124.062 19.4766C124.349 19.1224 124.695 18.8542 125.102 18.6719C125.508 18.4844 125.977 18.3906 126.508 18.3906C127.039 18.3906 127.51 18.4948 127.922 18.7031C128.333 18.9062 128.68 19.1979 128.961 19.5781C129.242 19.9583 129.453 20.4141 129.594 20.9453C129.74 21.4714 129.812 22.0573 129.812 22.7031ZM128.359 22.8672V22.7031C128.359 22.2812 128.315 21.8854 128.227 21.5156C128.138 21.1406 128 20.8125 127.812 20.5312C127.63 20.2448 127.396 20.0208 127.109 19.8594C126.823 19.6927 126.482 19.6094 126.086 19.6094C125.721 19.6094 125.404 19.6719 125.133 19.7969C124.867 19.9219 124.641 20.0911 124.453 20.3047C124.266 20.513 124.112 20.7526 123.992 21.0234C123.878 21.2891 123.792 21.5651 123.734 21.8516V23.875C123.839 24.2396 123.984 24.5833 124.172 24.9062C124.359 25.224 124.609 25.4818 124.922 25.6797C125.234 25.8724 125.628 25.9688 126.102 25.9688C126.492 25.9688 126.828 25.888 127.109 25.7266C127.396 25.5599 127.63 25.3333 127.812 25.0469C128 24.7604 128.138 24.4323 128.227 24.0625C128.315 23.6875 128.359 23.2891 128.359 22.8672ZM133.102 19.875V27H131.656V18.5469H133.062L133.102 19.875ZM135.742 18.5L135.734 19.8438C135.615 19.8177 135.5 19.8021 135.391 19.7969C135.286 19.7865 135.167 19.7812 135.031 19.7812C134.698 19.7812 134.404 19.8333 134.148 19.9375C133.893 20.0417 133.677 20.1875 133.5 20.375C133.323 20.5625 133.182 20.7865 133.078 21.0469C132.979 21.3021 132.914 21.5833 132.883 21.8906L132.477 22.125C132.477 21.6146 132.526 21.1354 132.625 20.6875C132.729 20.2396 132.888 19.8438 133.102 19.5C133.315 19.151 133.586 18.8802 133.914 18.6875C134.247 18.4896 134.643 18.3906 135.102 18.3906C135.206 18.3906 135.326 18.4036 135.461 18.4297C135.596 18.4505 135.69 18.474 135.742 18.5ZM138.648 18.5469V27H137.195V18.5469H138.648ZM137.086 16.3047C137.086 16.0703 137.156 15.8724 137.297 15.7109C137.443 15.5495 137.656 15.4688 137.938 15.4688C138.214 15.4688 138.424 15.5495 138.57 15.7109C138.721 15.8724 138.797 16.0703 138.797 16.3047C138.797 16.5286 138.721 16.7214 138.57 16.8828C138.424 17.0391 138.214 17.1172 137.938 17.1172C137.656 17.1172 137.443 17.0391 137.297 16.8828C137.156 16.7214 137.086 16.5286 137.086 16.3047ZM142.406 20.2266V27H140.953V18.5469H142.328L142.406 20.2266ZM142.109 22.4531L141.438 22.4297C141.443 21.8516 141.518 21.3177 141.664 20.8281C141.81 20.3333 142.026 19.9036 142.312 19.5391C142.599 19.1745 142.956 18.8932 143.383 18.6953C143.81 18.4922 144.305 18.3906 144.867 18.3906C145.263 18.3906 145.628 18.4479 145.961 18.5625C146.294 18.6719 146.583 18.8464 146.828 19.0859C147.073 19.3255 147.263 19.6328 147.398 20.0078C147.534 20.3828 147.602 20.8359 147.602 21.3672V27H146.156V21.4375C146.156 20.9948 146.081 20.6406 145.93 20.375C145.784 20.1094 145.576 19.9167 145.305 19.7969C145.034 19.6719 144.716 19.6094 144.352 19.6094C143.924 19.6094 143.568 19.6849 143.281 19.8359C142.995 19.987 142.766 20.1953 142.594 20.4609C142.422 20.7266 142.297 21.0312 142.219 21.375C142.146 21.7135 142.109 22.0729 142.109 22.4531ZM147.586 21.6562L146.617 21.9531C146.622 21.4896 146.698 21.0443 146.844 20.6172C146.995 20.1901 147.211 19.8099 147.492 19.4766C147.779 19.1432 148.13 18.8802 148.547 18.6875C148.964 18.4896 149.44 18.3906 149.977 18.3906C150.43 18.3906 150.831 18.4505 151.18 18.5703C151.534 18.6901 151.831 18.875 152.07 19.125C152.315 19.3698 152.5 19.6849 152.625 20.0703C152.75 20.4557 152.812 20.9141 152.812 21.4453V27H151.359V21.4297C151.359 20.9557 151.284 20.5885 151.133 20.3281C150.987 20.0625 150.779 19.8776 150.508 19.7734C150.242 19.6641 149.924 19.6094 149.555 19.6094C149.237 19.6094 148.956 19.6641 148.711 19.7734C148.466 19.8828 148.26 20.0339 148.094 20.2266C147.927 20.4141 147.799 20.6302 147.711 20.875C147.628 21.1198 147.586 21.3802 147.586 21.6562ZM156.57 18.5469V27H155.117V18.5469H156.57ZM155.008 16.3047C155.008 16.0703 155.078 15.8724 155.219 15.7109C155.365 15.5495 155.578 15.4688 155.859 15.4688C156.135 15.4688 156.346 15.5495 156.492 15.7109C156.643 15.8724 156.719 16.0703 156.719 16.3047C156.719 16.5286 156.643 16.7214 156.492 16.8828C156.346 17.0391 156.135 17.1172 155.859 17.1172C155.578 17.1172 155.365 17.0391 155.219 16.8828C155.078 16.7214 155.008 16.5286 155.008 16.3047ZM160.336 19.875V27H158.891V18.5469H160.297L160.336 19.875ZM162.977 18.5L162.969 19.8438C162.849 19.8177 162.734 19.8021 162.625 19.7969C162.521 19.7865 162.401 19.7812 162.266 19.7812C161.932 19.7812 161.638 19.8333 161.383 19.9375C161.128 20.0417 160.911 20.1875 160.734 20.375C160.557 20.5625 160.417 20.7865 160.312 21.0469C160.214 21.3021 160.148 21.5833 160.117 21.8906L159.711 22.125C159.711 21.6146 159.76 21.1354 159.859 20.6875C159.964 20.2396 160.122 19.8438 160.336 19.5C160.549 19.151 160.82 18.8802 161.148 18.6875C161.482 18.4896 161.878 18.3906 162.336 18.3906C162.44 18.3906 162.56 18.4036 162.695 18.4297C162.831 18.4505 162.924 18.474 162.977 18.5ZM168.273 15H169.727V25.3594L169.602 27H168.273V15ZM175.438 22.7031V22.8672C175.438 23.4818 175.365 24.0521 175.219 24.5781C175.073 25.099 174.859 25.5521 174.578 25.9375C174.297 26.3229 173.953 26.6224 173.547 26.8359C173.141 27.0495 172.674 27.1562 172.148 27.1562C171.612 27.1562 171.141 27.0651 170.734 26.8828C170.333 26.6953 169.995 26.4271 169.719 26.0781C169.443 25.7292 169.221 25.3073 169.055 24.8125C168.893 24.3177 168.781 23.7604 168.719 23.1406V22.4219C168.781 21.7969 168.893 21.237 169.055 20.7422C169.221 20.2474 169.443 19.8255 169.719 19.4766C169.995 19.1224 170.333 18.8542 170.734 18.6719C171.135 18.4844 171.602 18.3906 172.133 18.3906C172.664 18.3906 173.135 18.4948 173.547 18.7031C173.958 18.9062 174.302 19.1979 174.578 19.5781C174.859 19.9583 175.073 20.4141 175.219 20.9453C175.365 21.4714 175.438 22.0573 175.438 22.7031ZM173.984 22.8672V22.7031C173.984 22.2812 173.945 21.8854 173.867 21.5156C173.789 21.1406 173.664 20.8125 173.492 20.5312C173.32 20.2448 173.094 20.0208 172.812 19.8594C172.531 19.6927 172.185 19.6094 171.773 19.6094C171.409 19.6094 171.091 19.6719 170.82 19.7969C170.555 19.9219 170.328 20.0911 170.141 20.3047C169.953 20.513 169.799 20.7526 169.68 21.0234C169.565 21.2891 169.479 21.5651 169.422 21.8516V23.7344C169.505 24.099 169.641 24.4505 169.828 24.7891C170.021 25.1224 170.276 25.3958 170.594 25.6094C170.917 25.8229 171.315 25.9297 171.789 25.9297C172.18 25.9297 172.513 25.8516 172.789 25.6953C173.07 25.5339 173.297 25.3125 173.469 25.0312C173.646 24.75 173.776 24.4245 173.859 24.0547C173.943 23.6849 173.984 23.2891 173.984 22.8672ZM176.883 22.8672V22.6875C176.883 22.0781 176.971 21.513 177.148 20.9922C177.326 20.4661 177.581 20.0104 177.914 19.625C178.247 19.2344 178.651 18.9323 179.125 18.7188C179.599 18.5 180.13 18.3906 180.719 18.3906C181.312 18.3906 181.846 18.5 182.32 18.7188C182.799 18.9323 183.206 19.2344 183.539 19.625C183.878 20.0104 184.135 20.4661 184.312 20.9922C184.49 21.513 184.578 22.0781 184.578 22.6875V22.8672C184.578 23.4766 184.49 24.0417 184.312 24.5625C184.135 25.0833 183.878 25.5391 183.539 25.9297C183.206 26.3151 182.802 26.6172 182.328 26.8359C181.859 27.0495 181.328 27.1562 180.734 27.1562C180.141 27.1562 179.607 27.0495 179.133 26.8359C178.659 26.6172 178.253 26.3151 177.914 25.9297C177.581 25.5391 177.326 25.0833 177.148 24.5625C176.971 24.0417 176.883 23.4766 176.883 22.8672ZM178.328 22.6875V22.8672C178.328 23.2891 178.378 23.6875 178.477 24.0625C178.576 24.4323 178.724 24.7604 178.922 25.0469C179.125 25.3333 179.378 25.5599 179.68 25.7266C179.982 25.888 180.333 25.9688 180.734 25.9688C181.13 25.9688 181.477 25.888 181.773 25.7266C182.076 25.5599 182.326 25.3333 182.523 25.0469C182.721 24.7604 182.87 24.4323 182.969 24.0625C183.073 23.6875 183.125 23.2891 183.125 22.8672V22.6875C183.125 22.2708 183.073 21.8776 182.969 21.5078C182.87 21.1328 182.719 20.8021 182.516 20.5156C182.318 20.224 182.068 19.9948 181.766 19.8281C181.469 19.6615 181.12 19.5781 180.719 19.5781C180.323 19.5781 179.974 19.6615 179.672 19.8281C179.375 19.9948 179.125 20.224 178.922 20.5156C178.724 20.8021 178.576 21.1328 178.477 21.5078C178.378 21.8776 178.328 22.2708 178.328 22.6875ZM187.961 15V27H186.508V15H187.961ZM193.789 27.1562C193.201 27.1562 192.667 27.0573 192.188 26.8594C191.714 26.6562 191.305 26.3724 190.961 26.0078C190.622 25.6432 190.362 25.2109 190.18 24.7109C189.997 24.2109 189.906 23.6641 189.906 23.0703V22.7422C189.906 22.0547 190.008 21.4427 190.211 20.9062C190.414 20.3646 190.69 19.9062 191.039 19.5312C191.388 19.1562 191.784 18.8724 192.227 18.6797C192.669 18.487 193.128 18.3906 193.602 18.3906C194.206 18.3906 194.727 18.4948 195.164 18.7031C195.607 18.9115 195.969 19.2031 196.25 19.5781C196.531 19.9479 196.74 20.3854 196.875 20.8906C197.01 21.3906 197.078 21.9375 197.078 22.5312V23.1797H190.766V22H195.633V21.8906C195.612 21.5156 195.534 21.151 195.398 20.7969C195.268 20.4427 195.06 20.151 194.773 19.9219C194.487 19.6927 194.096 19.5781 193.602 19.5781C193.273 19.5781 192.971 19.6484 192.695 19.7891C192.419 19.9245 192.182 20.1276 191.984 20.3984C191.786 20.6693 191.633 21 191.523 21.3906C191.414 21.7812 191.359 22.2318 191.359 22.7422V23.0703C191.359 23.4714 191.414 23.849 191.523 24.2031C191.638 24.5521 191.802 24.8594 192.016 25.125C192.234 25.3906 192.497 25.599 192.805 25.75C193.117 25.901 193.471 25.9766 193.867 25.9766C194.378 25.9766 194.81 25.8724 195.164 25.6641C195.518 25.4557 195.828 25.1771 196.094 24.8281L196.969 25.5234C196.786 25.7995 196.555 26.0625 196.273 26.3125C195.992 26.5625 195.646 26.7656 195.234 26.9219C194.828 27.0781 194.346 27.1562 193.789 27.1562ZM202.305 18.5469V19.6562H197.734V18.5469H202.305ZM199.281 16.4922H200.727V24.9062C200.727 25.1927 200.771 25.4089 200.859 25.5547C200.948 25.7005 201.062 25.7969 201.203 25.8438C201.344 25.8906 201.495 25.9141 201.656 25.9141C201.776 25.9141 201.901 25.9036 202.031 25.8828C202.167 25.8568 202.268 25.8359 202.336 25.8203L202.344 27C202.229 27.0365 202.078 27.0703 201.891 27.1016C201.708 27.138 201.487 27.1562 201.227 27.1562C200.872 27.1562 200.547 27.0859 200.25 26.9453C199.953 26.8047 199.716 26.5703 199.539 26.2422C199.367 25.9089 199.281 25.4609 199.281 24.8984V16.4922ZM205.57 18.5469V27H204.117V18.5469H205.57ZM204.008 16.3047C204.008 16.0703 204.078 15.8724 204.219 15.7109C204.365 15.5495 204.578 15.4688 204.859 15.4688C205.135 15.4688 205.346 15.5495 205.492 15.7109C205.643 15.8724 205.719 16.0703 205.719 16.3047C205.719 16.5286 205.643 16.7214 205.492 16.8828C205.346 17.0391 205.135 17.1172 204.859 17.1172C204.578 17.1172 204.365 17.0391 204.219 16.8828C204.078 16.7214 204.008 16.5286 204.008 16.3047ZM209.328 20.2266V27H207.875V18.5469H209.25L209.328 20.2266ZM209.031 22.4531L208.359 22.4297C208.365 21.8516 208.44 21.3177 208.586 20.8281C208.732 20.3333 208.948 19.9036 209.234 19.5391C209.521 19.1745 209.878 18.8932 210.305 18.6953C210.732 18.4922 211.227 18.3906 211.789 18.3906C212.185 18.3906 212.549 18.4479 212.883 18.5625C213.216 18.6719 213.505 18.8464 213.75 19.0859C213.995 19.3255 214.185 19.6328 214.32 20.0078C214.456 20.3828 214.523 20.8359 214.523 21.3672V27H213.078V21.4375C213.078 20.9948 213.003 20.6406 212.852 20.375C212.706 20.1094 212.497 19.9167 212.227 19.7969C211.956 19.6719 211.638 19.6094 211.273 19.6094C210.846 19.6094 210.49 19.6849 210.203 19.8359C209.917 19.987 209.688 20.1953 209.516 20.4609C209.344 20.7266 209.219 21.0312 209.141 21.375C209.068 21.7135 209.031 22.0729 209.031 22.4531ZM214.508 21.6562L213.539 21.9531C213.544 21.4896 213.62 21.0443 213.766 20.6172C213.917 20.1901 214.133 19.8099 214.414 19.4766C214.701 19.1432 215.052 18.8802 215.469 18.6875C215.885 18.4896 216.362 18.3906 216.898 18.3906C217.352 18.3906 217.753 18.4505 218.102 18.5703C218.456 18.6901 218.753 18.875 218.992 19.125C219.237 19.3698 219.422 19.6849 219.547 20.0703C219.672 20.4557 219.734 20.9141 219.734 21.4453V27H218.281V21.4297C218.281 20.9557 218.206 20.5885 218.055 20.3281C217.909 20.0625 217.701 19.8776 217.43 19.7734C217.164 19.6641 216.846 19.6094 216.477 19.6094C216.159 19.6094 215.878 19.6641 215.633 19.7734C215.388 19.8828 215.182 20.0339 215.016 20.2266C214.849 20.4141 214.721 20.6302 214.633 20.875C214.549 21.1198 214.508 21.3802 214.508 21.6562Z" fill="#EB339B"/>
</g>
<rect x="1" y="1" width="322" height="42" rx="3" stroke="#EB339B" stroke-width="2"/>
<defs>
<clipPath id="clip0_27_1124">
<rect x="103" y="10" width="118" height="24" rx="4" fill="white"/>
</clipPath>
</defs>
</svg>
