<svg width="79" height="24" viewBox="0 0 79 24" fill="none" xmlns="http://www.w3.org/2000/svg">
<path d="M0.656 23V0.599998H11.6C14.416 0.599998 16.528 1.13333 17.936 2.2C19.3653 3.26667 20.08 4.67467 20.08 6.424C20.08 7.59733 19.792 8.62133 19.216 9.496C18.64 10.3493 17.8507 11.0107 16.848 11.48C15.8453 11.9493 14.6933 12.184 13.392 12.184L14 10.872C15.408 10.872 16.656 11.1067 17.744 11.576C18.832 12.024 19.6747 12.696 20.272 13.592C20.8907 14.488 21.2 15.5867 21.2 16.888C21.2 18.808 20.4427 20.312 18.928 21.4C17.4133 22.4667 15.184 23 12.24 23H0.656ZM5.808 19.096H11.856C13.2 19.096 14.2133 18.8827 14.896 18.456C15.6 18.008 15.952 17.304 15.952 16.344C15.952 15.4053 15.6 14.712 14.896 14.264C14.2133 13.7947 13.2 13.56 11.856 13.56H5.424V9.784H10.96C12.2187 9.784 13.1787 9.57067 13.84 9.144C14.5227 8.696 14.864 8.024 14.864 7.128C14.864 6.25333 14.5227 5.60267 13.84 5.176C13.1787 4.728 12.2187 4.504 10.96 4.504H5.808V19.096ZM32.0368 23.256C30.6074 23.256 29.3274 22.9787 28.1968 22.424C27.0874 21.8693 26.2234 21.0267 25.6048 19.896C24.9861 18.744 24.6768 17.2827 24.6768 15.512V5.784H29.6688V14.776C29.6688 16.2053 29.9674 17.2613 30.5648 17.944C31.1834 18.6053 32.0474 18.936 33.1568 18.936C33.9248 18.936 34.6074 18.776 35.2048 18.456C35.8021 18.1147 36.2714 17.6027 36.6128 16.92C36.9541 16.216 37.1248 15.3413 37.1248 14.296V5.784H42.1168V23H37.3808V18.264L38.2448 19.64C37.6688 20.8347 36.8154 21.7413 35.6848 22.36C34.5754 22.9573 33.3594 23.256 32.0368 23.256ZM45.5575 23V19.992L55.7335 7.96L56.5975 9.624H45.7815V5.784H60.6295V8.792L50.4535 20.824L49.5575 19.16H60.9175V23H45.5575ZM62.9325 23V19.992L73.1085 7.96L73.9725 9.624H63.1565V5.784H78.0045V8.792L67.8285 20.824L66.9325 19.16H78.2925V23H62.9325Z" fill="#111111"/>
</svg>
