<svg width="16" height="16" viewBox="0 0 16 16" fill="none" xmlns="http://www.w3.org/2000/svg">
<g clip-path="url(#clip0_116_203)">
<path d="M6.00033 13.3333H12.0003C12.5537 13.3333 13.027 13 13.227 12.52L15.2403 7.82C15.3003 7.66667 15.3337 7.50667 15.3337 7.33333V6C15.3337 5.26667 14.7337 4.66667 14.0003 4.66667H9.79366L10.427 1.62L10.447 1.40667C10.447 1.13333 10.3337 0.88 10.1537 0.7L9.44699 0L5.05366 4.39333C4.81366 4.63333 4.66699 4.96667 4.66699 5.33333V12C4.66699 12.7333 5.26699 13.3333 6.00033 13.3333ZM6.00033 5.33333L8.89366 2.44L8.00033 6H14.0003V7.33333L12.0003 12H6.00033V5.33333ZM0.666992 5.33333H3.33366V13.3333H0.666992V5.33333Z" fill="white"/>
</g>
<defs>
<clipPath id="clip0_116_203">
<rect width="16" height="16" fill="white"/>
</clipPath>
</defs>
</svg>
