<?xml version="1.0" encoding="utf-8"?>
<!-- Generator: Adobe Illustrator 25.2.3, SVG Export Plug-In . SVG Version: 6.00 Build 0)  -->
<svg version="1.1" id="Camada_1" xmlns="http://www.w3.org/2000/svg" xmlns:xlink="http://www.w3.org/1999/xlink" x="0px" y="0px"
	 viewBox="0 0 33 29" style="enable-background:new 0 0 33 29;" xml:space="preserve">
<style type="text/css">
	.st0{fill:#EB339B;}
</style>
<path class="st0" d="M28.6,7.6c-0.8,0-1.6,0.2-2.2,0.7c-0.7,0.4-1.2,1.1-1.5,1.8c-0.3,0.7-0.4,1.6-0.2,2.3c0.2,0.8,0.5,1.5,1.1,2.1
	c0.6,0.6,1.3,1,2.1,1.1c0.8,0.2,1.6,0.1,2.3-0.2s1.4-0.8,1.8-1.5c0.4-0.7,0.7-1.4,0.7-2.2c0-1.1-0.4-2.1-1.2-2.9
	C30.7,8,29.7,7.6,28.6,7.6z M8.4,11.6c0-0.8-0.2-1.6-0.7-2.2C7.3,8.7,6.6,8.2,5.9,7.9S4.4,7.5,3.6,7.6C2.8,7.8,2.1,8.2,1.5,8.7
	c-0.6,0.6-1,1.3-1.1,2.1c-0.2,0.8-0.1,1.6,0.2,2.3c0.3,0.7,0.8,1.4,1.5,1.8c0.7,0.4,1.4,0.7,2.2,0.7c1.1,0,2.1-0.4,2.9-1.2
	C8,13.7,8.4,12.7,8.4,11.6z M11.3,8.7c0.8,0,1.6-0.2,2.2-0.7C14.2,7.6,14.7,7,15,6.2s0.4-1.6,0.2-2.3c-0.2-0.8-0.5-1.5-1.1-2.1
	c-0.6-0.6-1.3-1-2.1-1.1c-0.8-0.2-1.6-0.1-2.3,0.2C9,1.2,8.4,1.8,7.9,2.4C7.5,3.1,7.2,3.9,7.2,4.7c0,1.1,0.4,2.1,1.2,2.9
	C9.2,8.3,10.2,8.7,11.3,8.7z M21.7,8.7c0.8,0,1.6-0.2,2.2-0.7c0.7-0.4,1.2-1.1,1.5-1.8c0.3-0.7,0.4-1.6,0.2-2.3
	c-0.2-0.8-0.5-1.5-1.1-2.1c-0.6-0.6-1.3-1-2.1-1.1c-0.8-0.2-1.6-0.1-2.3,0.2c-0.7,0.3-1.4,0.8-1.8,1.5c-0.4,0.7-0.7,1.4-0.7,2.2
	c0,1.1,0.4,2.1,1.2,2.9C19.6,8.3,20.6,8.7,21.7,8.7z M25,17.5c-1.2-0.7-2.1-1.8-2.4-3.1c-0.4-1.3-1.2-2.5-2.3-3.3
	c-1.1-0.8-2.4-1.3-3.8-1.3c-1.4,0-2.7,0.4-3.8,1.3c-1.1,0.8-1.9,2-2.3,3.3C10,15.8,9.1,16.9,8,17.5c-1.3,0.7-2.3,1.9-2.7,3.3
	c-0.5,1.4-0.4,2.9,0.3,4.3c0.6,1.3,1.8,2.4,3.2,2.9c1.4,0.5,2.9,0.5,4.3-0.1c2.3-0.9,4.8-0.9,7.1,0c1.4,0.6,2.9,0.6,4.3,0.1
	c1.4-0.5,2.5-1.6,3.2-2.9c0.6-1.3,0.8-2.9,0.3-4.3C27.3,19.4,26.3,18.2,25,17.5z"/>
</svg>
